<svg width="26" height="25" viewBox="0 0 26 25" fill="none" xmlns="http://www.w3.org/2000/svg">
<path d="M13.1484 16.4792C12.7043 16.4792 12.3359 16.125 12.3359 15.6979V13.6562C12.3359 10.6042 14.9143 8.125 18.0993 8.125H20.2226C20.6667 8.125 21.0351 8.47917 21.0351 8.90625C21.0351 9.33333 20.6667 9.6875 20.2226 9.6875H18.0993C15.8243 9.6875 13.9609 11.4687 13.9609 13.6562V15.6979C13.9609 16.1354 13.5926 16.4792 13.1484 16.4792Z" fill="#EE3E42"/>
<path d="M13.1493 18.7503C12.7051 18.7503 12.3368 18.3962 12.3368 17.9691V13.667C12.3368 11.4795 10.4843 9.69824 8.20929 9.69824H6.08594C5.64177 9.69824 5.27344 9.34408 5.27344 8.91699C5.27344 8.48991 5.64177 8.13574 6.08594 8.13574H8.20929C11.3835 8.13574 13.9618 10.6149 13.9618 13.667V17.9691C13.9618 18.3962 13.5935 18.7503 13.1493 18.7503Z" fill="#EE3E42"/>
<path d="M7.73637 11.5628C7.53054 11.5628 7.32467 11.4899 7.16217 11.3337L5.21219 9.45866C4.89802 9.15658 4.89802 8.65658 5.21219 8.3545L7.16217 6.47949C7.47634 6.17741 7.99634 6.17741 8.31051 6.47949C8.62467 6.78158 8.62467 7.28157 8.31051 7.58366L6.93472 8.90658L8.31051 10.2295C8.62467 10.5316 8.62467 11.0316 8.31051 11.3337C8.14801 11.4899 7.94221 11.5628 7.73637 11.5628Z" fill="#EE3E42"/>
<path d="M18.2629 11.5628C18.057 11.5628 17.8513 11.4899 17.6888 11.3337C17.3746 11.0316 17.3746 10.5316 17.6888 10.2295L19.0645 8.90658L17.6888 7.58366C17.3746 7.28157 17.3746 6.78158 17.6888 6.47949C18.0029 6.17741 18.5229 6.17741 18.8371 6.47949L20.7871 8.3545C21.1012 8.65658 21.1012 9.15658 20.7871 9.45866L18.8371 11.3337C18.6854 11.4899 18.4687 11.5628 18.2629 11.5628Z" fill="#EE3E42"/>
<path d="M16.2474 23.6976H9.7474C3.8649 23.6976 1.35156 21.2809 1.35156 15.6247V9.37467C1.35156 3.71842 3.8649 1.30176 9.7474 1.30176H16.2474C22.1299 1.30176 24.6432 3.71842 24.6432 9.37467V15.6247C24.6432 21.2809 22.1299 23.6976 16.2474 23.6976ZM9.7474 2.86426C4.75323 2.86426 2.97656 4.57259 2.97656 9.37467V15.6247C2.97656 20.4268 4.75323 22.1351 9.7474 22.1351H16.2474C21.2416 22.1351 23.0182 20.4268 23.0182 15.6247V9.37467C23.0182 4.57259 21.2416 2.86426 16.2474 2.86426H9.7474Z" fill="#EE3E42"/>
</svg>
